HIERARCHY
ROOT Hips
{
    OFFSET 0.000000 0.000000 0.000000
    CHANNELS 6 Xposition Yposition Zposition Zrotation Xrotation Yrotation
    JOINT Spine
    {
        OFFSET -0.000000 7.246840 0.000000
        CHANNELS 3 Zrotation Xrotation Yrotation
        JOINT Spine1
        {
            OFFSET -0.000000 20.289354 0.000000
            CHANNELS 3 Zrotation Xrotation Yrotation
            JOINT Neck
            {
                OFFSET -0.000000 20.206032 1.836912
                CHANNELS 3 Zrotation Xrotation Yrotation
                JOINT Head
                {
                    OFFSET -0.000000 12.372654 -1.767522
                    CHANNELS 3 Zrotation Xrotation Yrotation
                    End Site
                    {
                        OFFSET -0.000000 22.094025 0.000000
                    }
                }
            }
            JOINT LeftShoulder
            {
                OFFSET 3.465871 17.201674 -0.568930
                CHANNELS 3 Zrotation Xrotation Yrotation
                JOINT LeftArm
                {
                    OFFSET 14.070313 0.000000 0.000000
                    CHANNELS 3 Zrotation Xrotation Yrotation
                    JOINT LeftForeArm
                    {
                        OFFSET 26.549477 0.000000 0.000000
                        CHANNELS 3 Zrotation Xrotation Yrotation
                        JOINT LeftHand
                        {
                            OFFSET 18.880413 0.000000 0.000000
                            CHANNELS 3 Zrotation Xrotation Yrotation
                            End Site
                            {
                                OFFSET 13.256415 0.000000 0.000000
                            }
                        }
                    }
                }
            }
            JOINT RightShoulder
            {
                OFFSET -3.526370 17.201674 -0.568930
                CHANNELS 3 Zrotation Xrotation Yrotation
                JOINT RightArm
                {
                    OFFSET -14.070313 0.000000 0.000000
                    CHANNELS 3 Zrotation Xrotation Yrotation
                    JOINT RightForeArm
                    {
                        OFFSET -26.549477 0.000000 0.000000
                        CHANNELS 3 Zrotation Xrotation Yrotation
                        JOINT RightHand
                        {
                            OFFSET -18.880413 0.000000 0.000000
                            CHANNELS 3 Zrotation Xrotation Yrotation
                            End Site
                            {
                                OFFSET -13.256415 0.000000 0.000000
                            }
                        }
                    }
                }
            }
        }
    }
    JOINT LeftUpLeg
    {
        OFFSET 8.837609 0.000000 0.000000
        CHANNELS 3 Zrotation Xrotation Yrotation
        JOINT LeftLeg
        {
            OFFSET -0.000000 -41.345005 0.000000
            CHANNELS 3 Zrotation Xrotation Yrotation
            JOINT LeftFoot
            {
                OFFSET -0.000000 -35.500874 0.000000
                CHANNELS 3 Zrotation Xrotation Yrotation
                JOINT LeftToeBase
                {
                    OFFSET -0.000000 -5.744446 13.256415
                    CHANNELS 3 Zrotation Xrotation Yrotation
                    End Site
                    {
                        OFFSET -0.000000 0.000000 3.535044
                    }
                }
            }
        }
    }
    JOINT RightUpLeg
    {
        OFFSET -8.837609 0.000000 0.000000
        CHANNELS 3 Zrotation Xrotation Yrotation
        JOINT RightLeg
        {
            OFFSET -0.000000 -41.345005 0.000000
            CHANNELS 3 Zrotation Xrotation Yrotation
            JOINT RightFoot
            {
                OFFSET -0.000000 -35.500874 0.000000
                CHANNELS 3 Zrotation Xrotation Yrotation
                JOINT RightToeBase
                {
                    OFFSET -0.000000 -5.744446 13.256415
                    CHANNELS 3 Zrotation Xrotation Yrotation
                    End Site
                    {
                        OFFSET -0.000000 0.000000 3.535044
                    }
                }
            }
        }
    }
}
MOTION
Frames:    8
Frame Time:    0.010000
2.851151    82.160027    -10.050872    2.446950    4.635118    -3.116697    -5.883831    -15.721988    -1.638757    3.404932    4.027531    -0.945431    2.462475    30.560234    -0.975763    0.202753    -10.910886    -0.619941    19.014957    2.039455    7.689038    -31.594891    12.650688    -9.231320    7.133906    -13.481206    -14.045671    -32.723713    -13.653899    3.601030    -17.133984    2.613076    11.256576    19.526802    6.885687    7.854313    -5.601514    -11.412810    7.940819    15.839009    -9.221395    13.156855    -3.229703    6.582904    1.647133    -2.079755    -10.771337    -4.030070    3.459771    0.822364    -4.172946    -0.553540    -2.779724    0.788256    -7.216340    4.494728    1.126828    8.272595    -10.059678    2.879005    0.193027    -0.845336    -5.151974    -0.838083    -0.596330    1.512649    
2.847844    82.160202    -10.052294    2.442690    4.638464    -3.125413    -5.865994    -15.720488    -1.627095    3.372832    4.002800    -0.934537    2.468384    30.563826    -0.976650    0.224767    -10.880527    -0.614829    19.021551    2.014558    7.659867    -31.571379    12.677246    -9.188910    7.125439    -13.481154    -14.075624    -32.763130    -13.662522    3.629719    -17.122534    2.474037    11.272923    19.848358    5.546442    8.010502    -5.753246    -10.679214    7.501500    15.980916    -8.463291    13.260261    -3.225041    6.581197    1.657667    -2.071414    -10.770665    -4.095963    3.468792    0.828861    -4.105585    -0.551440    -2.782919    0.785282    -7.212513    4.490050    1.131387    8.280658    -10.063105    2.860560    0.196190    -0.839202    -5.126809    -0.839372    -0.557412    1.514333    
2.846560    82.161201    -10.054299    2.445725    4.643671    -3.136379    -5.866363    -15.723879    -1.618831    3.368266    3.982337    -0.925283    2.463996    30.580887    -0.977386    0.228883    -10.872025    -0.614832    19.032511    1.984015    7.629467    -31.586166    12.698001    -9.136466    7.133040    -13.454327    -14.103412    -32.789482    -13.641470    3.655977    -17.125561    2.481597    11.273504    19.849884    5.485647    8.028861    -5.756996    -10.681204    7.463797    15.990504    -8.464009    13.273135    -3.228213    6.578252    1.660001    -2.089768    -10.777090    -3.979104    3.483863    0.824510    -4.218064    -0.552045    -2.778524    0.786121    -7.216184    4.481188    1.129664    8.285179    -10.067220    2.849626    0.176000    -0.831044    -5.102126    -0.843591    -0.583629    1.522379    
2.843957    82.160759    -10.056311    2.447559    4.645556    -3.136799    -5.873724    -15.724848    -1.620445    3.368203    3.968152    -0.925335    2.461476    30.594734    -0.970109    0.228439    -10.864522    -0.607314    19.026394    2.001461    7.628053    -31.585033    12.661123    -9.138526    7.125425    -13.440125    -14.124398    -32.747696    -13.627675    3.663566    -17.109917    2.622066    11.275637    19.763418    5.368764    8.089897    -5.727817    -10.712748    7.451566    16.034376    -8.493960    13.267007    -3.227302    6.577438    1.646712    -2.079194    -10.783658    -4.028029    3.474381    0.836261    -4.152901    -0.635880    -3.079101    0.907224    -7.218771    4.478823    1.148942    8.285160    -10.066460    2.875636    0.170137    -0.839926    -5.144567    -0.830684    -0.586915    1.499142    
2.841652    82.161575    -10.059268    2.448854    4.649607    -3.140767    -5.875165    -15.726020    -1.617431    3.357209    3.956426    -0.921394    2.488588    30.591524    -0.980915    0.201376    -10.843931    -0.621270    19.035749    2.012512    7.644263    -31.591972    12.645793    -9.168468    7.140628    -13.402856    -14.109919    -32.720688    -13.580961    3.636956    -17.100218    2.617645    11.273696    19.746624    5.376994    8.094660    -5.723128    -10.733458    7.445621    16.093840    -8.509887    13.256711    -3.228767    6.569785    1.653393    -2.089781    -10.779033    -3.966699    3.477395    0.832582    -4.216722    -0.549242    -2.800585    0.782239    -7.219475    4.472171    1.157689    8.285934    -10.070856    2.848903    0.176605    -0.834763    -5.119520    -0.840779    -0.552876    1.516796    
2.838301    82.161667    -10.061448    2.448983    4.651695    -3.140205    -5.882631    -15.723585    -1.620340    3.358750    3.939603    -0.922946    2.482412    30.586758    -0.974220    0.204088    -10.811411    -0.614681    19.035582    2.013374    7.644842    -31.595608    12.658247    -9.164629    7.109715    -13.411498    -14.121053    -32.538689    -13.577197    3.604005    -17.120386    2.511917    11.299415    19.802542    5.480636    8.025819    -5.745432    -10.763528    7.486091    16.169538    -8.531571    13.230508    -3.224514    6.566598    1.646557    -2.084620    -10.778585    -3.999966    3.470512    0.832259    -4.179461    -0.647291    -3.073853    0.923473    -7.217077    4.467538    1.146305    8.291238    -10.069735    2.838102    0.166145    -0.834624    -5.098066    -0.855568    -0.544180    1.543327    
2.837000    82.162811    -10.064859    2.450038    4.655629    -3.140418    -5.882374    -15.728102    -1.618418    3.356720    3.937013    -0.920658    2.467597    30.578735    -0.976143    0.216288    -10.791104    -0.616222    19.012413    2.032276    7.664679    -31.571894    12.653605    -9.212966    7.060066    -13.453880    -14.116068    -32.302025    -13.598299    3.534101    -17.136507    2.520756    11.298078    19.811668    5.434507    8.020970    -5.738161    -10.767406    7.515477    16.200157    -8.529432    13.240807    -3.226681    6.561331    1.653825    -2.086133    -10.780720    -3.991545    3.500888    0.830084    -4.185672    -0.547237    -2.781600    0.779289    -7.219887    4.462605    1.164128    8.290930    -10.071804    2.840641    0.175719    -0.833500    -5.125991    -0.847287    -0.557367    1.528610    
2.834358    82.162811    -10.068120    2.451375    4.657782    -3.139133    -5.877615    -15.728216    -1.611972    3.329454    3.926339    -0.913610    2.479113    30.570601    -0.982900    0.232495    -10.756972    -0.618026    19.029905    2.047363    7.650908    -31.573149    12.665298    -9.227492    7.073550    -13.401476    -14.089170    -32.296494    -13.530386    3.479498    -17.115818    2.531259    11.293258    19.811285    5.382933    8.011038    -5.733006    -10.760875    7.537718    16.195196    -8.518670    13.268786    -3.229743    6.554936    1.677115    -2.083487    -10.774146    -4.001194    3.467962    0.832708    -4.202722    -0.552427    -2.781928    0.786682    -7.218391    4.456030    1.148659    8.293601    -10.065582    2.874210    0.178712    -0.828949    -5.133278    -0.833450    -0.559411    1.503682    
